<svg width="65" height="64" viewBox="0 0 65 64" fill="none" xmlns="http://www.w3.org/2000/svg">
<path fill-rule="evenodd" clip-rule="evenodd" d="M36.6037 2.46747C34.9244 -0.822489 30.726 -0.822491 29.0467 2.46747L1.41624 56.5976C-0.263099 59.8876 1.83608 64 5.19476 64H60.4556C63.8143 64 65.9135 59.8876 64.2341 56.5976L36.6037 2.46747ZM34.8306 19.1273C33.9919 17.4764 31.8862 17.4764 31.0475 19.1273L17.0963 46.5906C16.2607 48.2356 17.3105 50.2874 18.9878 50.2874H23.2212C23.6117 50.2874 23.9724 50.0513 24.167 49.6683L27.646 42.8198C28.2025 41.7242 29.6825 42.1709 29.6825 43.4345V55.3827C29.6825 56.0641 30.1708 56.6165 30.7733 56.6165H35.535C36.1374 56.6165 36.6258 56.0641 36.6258 55.3827V43.2585C36.6258 41.9949 38.1057 41.5482 38.6623 42.6438L42.2307 49.6683C42.4252 50.0513 42.7859 50.2874 43.1764 50.2874H46.8903C48.5676 50.2874 49.6174 48.2356 48.7818 46.5906L34.8306 19.1273Z" fill="#7B61FF"/>
</svg>
